<svg id="logo" data-name="logo" xmlns="http://www.w3.org/2000/svg" viewBox="0 0 32.381 29.7817"><defs><style>.cls-1{fill:#231f20;stroke:#231f20;stroke-miterlimit:10;stroke-width:1.5px;}</style></defs><path class="cls-1" d="M20.27,8.4038q0,.8511,1.45,2.15a29.7949,29.7949,0,0,0,3.2251,2.5,15.076,15.076,0,0,1,3.2246,2.9746,5.5955,5.5955,0,0,1,1.45,3.5254q0,1.75-.05,2.65a12.7154,12.7154,0,0,1-.4253,2.35,5.0331,5.0331,0,0,1-1.0747,2.2,5.8979,5.8979,0,0,1-2.125,1.3252,9.316,9.316,0,0,1-3.4751.5742l-6.65-.85-5.45.85q-4.05,0-5.3-1.4492-.5508-.6006-.9253-1.0508a3.8246,3.8246,0,0,1-.625-1.55q-.25-1.0986-.375-1.8a20.2193,20.2193,0,0,1-.2-2.3252q-.0755-1.6245-.0752-2.5752V11.7046a30.8254,30.8254,0,0,1,.2-4.4756q.1992-1.0737.45-2.1748a3.6023,3.6023,0,0,1,.625-1.5254c.25-.2822.5581-.625.9253-1.0244a2.6605,2.6605,0,0,1,1.35-.8,13.3509,13.3509,0,0,1,3.95-.6006l4.65,1.2q-.2505,1.6494-.4,2.35A2.5132,2.5132,0,0,1,14.0444,5.83,1.1231,1.1231,0,0,1,13.02,6.229a8.0654,8.0654,0,0,1-1.75-.5244l-.9-.3506a3.2928,3.2928,0,0,0-1.7749.4,2.6991,2.6991,0,0,0-.9,1.8252A17.94,17.94,0,0,0,7.37,10.3042q-.0506,1.3008-.05,4.45t.05,4.4746a19.1264,19.1264,0,0,0,.3252,2.8,2.9987,2.9987,0,0,0,.9,1.9258,3.0035,3.0035,0,0,0,1.7749.4492l5.45-.5,6.7.5a2.1048,2.1048,0,0,0,1.8-.8q.4988-.5493.5-3.6494,0-1.2012-4.5-4.6006a15.385,15.385,0,0,1-3.125-3.125A5.9447,5.9447,0,0,1,15.77,8.7046q0-1.6509.05-2.45a8.4554,8.4554,0,0,1,.4248-1.9756A3.459,3.459,0,0,1,17.32,2.5542a9.36,9.36,0,0,1,5.65-1.45l5.85,1.2q-.4014,2.9-.7754,3.2246a1.7158,1.7158,0,0,1-1.15.3252A13.1788,13.1788,0,0,1,25.07,5.7046L23.12,5.354q-2.0508,0-2.5.9A5.026,5.026,0,0,0,20.27,8.4038Z"/></svg>